<?xml version="1.0" encoding="iso-8859-1"?>
<!-- Generator: Adobe Illustrator 19.0.0, SVG Export Plug-In . SVG Version: 6.00 Build 0)  -->
<svg version="1.1" id="Layer_1" xmlns="http://www.w3.org/2000/svg" xmlns:xlink="http://www.w3.org/1999/xlink" x="0px" y="0px"
	 viewBox="0 0 512 512" style="enable-background:new 0 0 512 512;" xml:space="preserve">
<g>
	<g>
		<path d="M511.971,499.609l-8.728-100.452c-2.987-34.378-27.096-63.239-59.99-71.817l-63.296-16.506l-36.686-9.567
			c-2.068-0.538-4.269-0.21-6.09,0.912l-4.743,2.924l-24.48-11.128l-2.377-14.535c9.64-6.146,18.499-14.322,25.893-23.667
			c27.518-5.502,47.869-30.014,47.869-58.4v-91.835c2.826-1.892,4.882-4.881,5.512-8.443l12.014-67.976
			c1.109-6.277-0.605-12.678-4.701-17.56c-4.096-4.884-10.101-7.684-16.475-7.684H136.304c-6.374,0-12.379,2.8-16.475,7.684
			c-4.096,4.883-5.811,11.284-4.701,17.561l4.045,22.881c0.754,4.262,4.822,7.105,9.081,6.353c4.262-0.753,7.106-4.819,6.353-9.081
			l-4.045-22.88c-0.413-2.33,0.622-3.984,1.275-4.761c0.653-0.778,2.101-2.083,4.466-2.083h239.392c2.366,0,3.813,1.305,4.466,2.083
			c0.653,0.778,1.686,2.431,1.275,4.761l-11.601,65.64h-227.67l-2.994-16.937c-0.754-4.263-4.819-7.103-9.081-6.354
			c-4.261,0.753-7.106,4.819-6.353,9.081l3.407,19.274c0.63,3.561,2.685,6.549,5.511,8.441v91.835
			c0,28.297,20.279,52.797,47.699,58.367c7.422,9.433,16.335,17.686,26.035,23.878l-2.348,14.356l-24.479,11.128l-4.743-2.924
			c-0.228-0.14-0.461-0.268-0.7-0.383c-0.954-0.462-1.987-0.722-3.035-0.773c-0.786-0.038-1.58,0.042-2.355,0.245l-36.685,9.567
			c0,0,0,0-0.001,0L68.747,327.34c-32.894,8.578-57.003,37.439-59.99,71.818L0.029,499.609c-0.19,2.188,0.547,4.356,2.03,5.975
			c1.485,1.619,3.581,2.541,5.776,2.541h88.66c0.004,0,0.007,0,0.011,0c0.003,0,0.007,0,0.01,0H415.48c0.003,0,0.007,0,0.01,0
			c0.004,0,0.007,0,0.011,0h88.66c2.196,0,4.291-0.922,5.776-2.541C511.424,503.964,512.161,501.797,511.971,499.609z
			 M337.11,320.635c0.001,0,0.001-0.001,0.002-0.002l5.445-3.356l18.933,4.938l-68.183,58.361l-23.596-18.398L337.11,320.635z
			 M363.672,197.373c0.001,14.44-7.143,27.523-18.238,35.575c0.878-1.946,1.684-3.907,2.423-5.88
			c0.116-0.306,0.228-0.613,0.34-0.919c0.243-0.672,0.484-1.345,0.711-2.02c0.252-0.745,0.492-1.489,0.723-2.234
			c0.104-0.34,0.209-0.678,0.309-1.018c0.288-0.975,0.559-1.95,0.81-2.924c0.051-0.2,0.099-0.4,0.149-0.6
			c0.551-2.209,1.003-4.411,1.353-6.601c0.02-0.123,0.042-0.248,0.061-0.371c0.166-1.073,0.305-2.143,0.423-3.209
			c0.019-0.17,0.037-0.342,0.054-0.512c0.109-1.06,0.195-2.116,0.255-3.167c0.008-0.144,0.013-0.288,0.02-0.434
			c0.054-1.098,0.09-2.192,0.09-3.278v-6.442h0.272c3.739,0,7.233-1.031,10.246-2.797V197.373z M353.155,177.668V149.65h0.272
			c2.576,0,4.672,2.096,4.672,4.672v18.674c0,2.576-2.096,4.672-4.672,4.672H353.155z M148.329,197.372v-6.828
			c3.013,1.767,6.508,2.797,10.246,2.797h0.272v6.637c0,1.087,0.034,2.182,0.09,3.281c0.006,0.136,0.012,0.271,0.019,0.406
			c0.06,1.056,0.147,2.118,0.256,3.184c0.016,0.156,0.032,0.312,0.049,0.468c0.117,1.075,0.258,2.154,0.425,3.236
			c0.017,0.109,0.036,0.216,0.053,0.325c0.356,2.24,0.819,4.494,1.387,6.755c0.029,0.118,0.057,0.236,0.087,0.354
			c0.263,1.032,0.551,2.066,0.858,3.099c0.075,0.255,0.153,0.509,0.23,0.764c0.287,0.936,0.586,1.873,0.908,2.811
			c0.14,0.412,0.292,0.821,0.438,1.231c0.179,0.498,0.363,0.997,0.552,1.494c0.691,1.833,1.437,3.655,2.247,5.464
			C155.422,224.789,148.329,211.744,148.329,197.372z M153.902,172.997v-18.674c0-2.576,2.096-4.672,4.672-4.672h0.272v28.017
			h-0.272C155.998,177.669,153.902,175.573,153.902,172.997z M163.683,110.391c-2.929,1.213-4.838,4.071-4.838,7.24v16.346h-0.272
			c-3.739,0-7.233,1.031-10.246,2.797v-29.061h215.344v29.061c-3.013-1.767-6.508-2.797-10.246-2.797h-0.272v-4.106
			c0-0.292-0.017-0.582-0.048-0.869c-0.225-2.009-1.219-3.868-2.794-5.17c-0.317-0.262-0.656-0.486-1.005-0.693
			c-0.076-0.045-0.15-0.09-0.228-0.132c-0.349-0.191-0.707-0.359-1.078-0.495c-0.049-0.018-0.099-0.03-0.148-0.047
			c-0.345-0.118-0.697-0.21-1.054-0.279c-0.072-0.014-0.143-0.031-0.216-0.043c-0.389-0.064-0.782-0.097-1.178-0.101
			c-0.029,0-0.059-0.007-0.087-0.007c-0.132,0-0.264,0.013-0.397,0.019c-0.09,0.004-0.18,0.005-0.271,0.013
			c-0.269,0.023-0.537,0.056-0.805,0.108c-0.461,0.089-46.577,8.803-92.189,8.803c-39.61,0-67.078-6.532-79.433-18.886
			C169.981,109.848,166.612,109.177,163.683,110.391z M177.429,217.577c-0.038-0.119-0.074-0.238-0.111-0.357
			c-0.238-0.768-0.457-1.536-0.666-2.304c-0.076-0.281-0.153-0.561-0.225-0.842c-0.16-0.615-0.305-1.231-0.445-1.845
			c-0.087-0.38-0.173-0.761-0.252-1.139c-0.111-0.532-0.209-1.062-0.304-1.591c-0.077-0.426-0.157-0.854-0.225-1.278
			c-0.08-0.509-0.146-1.015-0.213-1.521c-0.055-0.424-0.117-0.849-0.163-1.271c-0.061-0.56-0.101-1.117-0.144-1.675
			c-0.027-0.355-0.064-0.714-0.084-1.066c-0.05-0.908-0.079-1.812-0.079-2.709v-14.474v-43.692v-8.965
			c17.23,9.168,43.07,13.801,77.138,13.801c3.297,0,6.588-0.043,9.859-0.122c3.272-0.079,6.523-0.195,9.739-0.343
			c1.072-0.049,2.141-0.101,3.205-0.157c26.6-1.393,50.447-4.798,63.02-6.843v2.629v43.692v14.278c0,0.905-0.029,1.816-0.08,2.731
			c-0.021,0.367-0.06,0.74-0.089,1.11c-0.043,0.55-0.082,1.098-0.142,1.651c-0.048,0.441-0.114,0.886-0.172,1.33
			c-0.066,0.492-0.128,0.984-0.207,1.478c-0.071,0.445-0.157,0.894-0.238,1.342c-0.094,0.512-0.187,1.024-0.295,1.537
			c-0.084,0.401-0.179,0.805-0.271,1.207c-0.136,0.588-0.274,1.178-0.426,1.767c-0.08,0.31-0.166,0.622-0.252,0.933
			c-0.197,0.719-0.401,1.438-0.624,2.157c-0.052,0.171-0.108,0.342-0.161,0.513c-6.508,20.506-22.998,40.896-41.632,51.172
			c-0.188,0.103-0.375,0.202-0.563,0.302c-0.586,0.317-1.176,0.62-1.766,0.915c-0.273,0.136-0.544,0.276-0.817,0.408
			c-0.7,0.339-1.402,0.66-2.106,0.969c-0.298,0.131-0.596,0.253-0.892,0.378c-0.556,0.233-1.112,0.457-1.67,0.67
			c-0.233,0.089-0.466,0.184-0.698,0.269c-0.759,0.279-1.519,0.536-2.28,0.777c-0.21,0.067-0.42,0.13-0.63,0.193
			c-0.807,0.245-1.614,0.477-2.423,0.677l-0.98,0.243c-2.695,0.669-5.16,1.255-7.46,1.756c-5.78,1.259-10.493,1.963-14.955,1.977
			c-0.042,0-0.084,0.002-0.125,0.002c-6.347,0-12.903-1.348-22.782-3.835c-0.81-0.204-1.62-0.439-2.427-0.686
			c-0.196-0.061-0.393-0.12-0.59-0.183c-0.768-0.246-1.536-0.509-2.302-0.793c-0.205-0.075-0.41-0.159-0.614-0.238
			c-0.61-0.234-1.218-0.481-1.825-0.739c-0.237-0.1-0.475-0.199-0.714-0.303c-0.747-0.328-1.492-0.674-2.234-1.035
			c-0.201-0.097-0.401-0.201-0.603-0.301c-0.741-0.371-1.479-0.752-2.213-1.156c-0.046-0.025-0.092-0.049-0.138-0.074
			C200.426,258.606,183.905,238.122,177.429,217.577z M214.341,306.507c2.383-1.084,4.069-3.286,4.491-5.869l2.215-13.543
			c0.125,0.048,0.252,0.092,0.377,0.14c0.397,0.151,0.795,0.299,1.194,0.442c0.877,0.316,1.752,0.613,2.626,0.889
			c0.214,0.067,0.428,0.13,0.643,0.194c1.012,0.308,2.023,0.598,3.031,0.852c10.84,2.729,18.668,4.309,26.608,4.309h0.001
			c0.093,0,0.185-0.003,0.277-0.003c6.799-0.031,13.52-1.203,22.161-3.25c1.252-0.297,2.543-0.611,3.881-0.944l0.98-0.243
			c0.999-0.249,2.002-0.532,3.006-0.834c0.243-0.073,0.488-0.144,0.731-0.22c0.866-0.271,1.733-0.561,2.602-0.871
			c0.447-0.159,0.892-0.327,1.339-0.495c0.141-0.053,0.281-0.101,0.422-0.157l2.245,13.734c0.422,2.584,2.108,4.786,4.491,5.869
			l18.704,8.503l-60.364,37.207l-60.364-37.207L214.341,306.507z M169.444,317.278l5.444,3.356c0.001,0.001,0.002,0.001,0.002,0.002
			l67.398,41.542l-23.596,18.398l-68.183-58.361L169.444,317.278z M422.673,492.45l-5.462-61.557
			c-0.382-4.311-4.203-7.493-8.499-7.114c-4.311,0.382-7.496,4.188-7.114,8.499l5.339,60.171H105.062l1.379-15.543
			c0.382-4.311-2.802-8.116-7.114-8.498c-4.297-0.38-8.117,2.802-8.499,7.114l-1.501,16.928H16.383l7.988-91.936
			c2.415-27.788,21.837-51.1,48.331-58.009l59.334-15.473l81.33,69.614c1.463,1.253,3.279,1.883,5.097,1.883
			c1.698,0,3.399-0.55,4.817-1.656L256,371.361l32.72,25.513c1.418,1.107,3.119,1.656,4.817,1.656c1.818,0,3.634-0.63,5.097-1.883
			l81.33-69.614l59.334,15.473c26.494,6.909,45.915,30.22,48.331,58.008l7.988,91.937H422.673z"/>
	</g>
</g>
<g>
	<g>
		<path d="M103.288,423.781c-4.299-0.381-8.117,2.802-8.499,7.114l-1.676,18.893c-0.382,4.311,2.802,8.117,7.114,8.499
			c0.236,0.021,0.469,0.031,0.702,0.031c4.014,0,7.435-3.069,7.797-7.144l1.676-18.893
			C110.784,427.969,107.599,424.163,103.288,423.781z"/>
	</g>
</g>
<g>
	<g>
		<path d="M205.411,152.683c-4.329,0-7.837,3.509-7.837,7.837v6.28c0,4.328,3.508,7.837,7.837,7.837
			c4.329,0,7.837-3.509,7.837-7.837v-6.28C213.247,156.191,209.738,152.683,205.411,152.683z"/>
	</g>
</g>
<g>
	<g>
		<path d="M306.591,152.683c-4.329,0-7.837,3.509-7.837,7.837v6.28c0,4.328,3.508,7.837,7.837,7.837s7.837-3.509,7.837-7.837v-6.28
			C314.427,156.191,310.92,152.683,306.591,152.683z"/>
	</g>
</g>
<g>
	<g>
		<path d="M274.809,42.922h-10.971V31.951c0-4.328-3.509-7.837-7.837-7.837c-4.329,0-7.837,3.509-7.837,7.837v10.971h-10.971
			c-4.329,0-7.837,3.509-7.837,7.837c0,4.328,3.508,7.837,7.837,7.837h10.971v10.971c0,4.328,3.508,7.837,7.837,7.837
			c4.329,0,7.837-3.509,7.837-7.837V58.595h10.971c4.329,0,7.837-3.509,7.837-7.837C282.645,46.431,279.138,42.922,274.809,42.922z"
			/>
	</g>
</g>
<g>
	<g>
		<path d="M371.509,430.922H290.21c-4.329,0-7.837,3.509-7.837,7.837v30.826c0,4.328,3.508,7.837,7.837,7.837h81.299
			c4.329,0,7.837-3.509,7.837-7.837v-30.826C379.346,434.431,375.837,430.922,371.509,430.922z M363.673,461.749h-65.626v-15.153
			h65.626V461.749z"/>
	</g>
</g>
<g>
</g>
<g>
</g>
<g>
</g>
<g>
</g>
<g>
</g>
<g>
</g>
<g>
</g>
<g>
</g>
<g>
</g>
<g>
</g>
<g>
</g>
<g>
</g>
<g>
</g>
<g>
</g>
<g>
</g>
</svg>
